<svg width="24" height="16" viewBox="0 0 24 16" fill="none" xmlns="http://www.w3.org/2000/svg">
<path d="M21.766 3.70398C16.6171 5.36562 15.2131 4.68469 13.7465 3.89127C13.5773 2.94611 12.1487 2.18744 10.3255 2.05749C10.3475 1.95443 10.3601 1.84395 10.3601 1.72835C10.3601 1.72142 10.3596 1.71479 10.3595 1.70786C10.5093 1.52671 10.6018 1.27718 10.6018 1.00148C10.6018 0.448565 10.2291 0 9.76919 0C9.30987 0 8.9374 0.448565 8.9374 1.00148C8.9374 1.27682 9.02976 1.52613 9.17904 1.70729C9.17898 1.71436 9.17839 1.72128 9.17839 1.72842C9.17839 1.84409 9.19103 1.9545 9.21303 2.05756C7.27054 2.19602 5.7752 3.04837 5.7752 4.07956C5.7752 4.1198 5.77807 4.15968 5.78257 4.19935C5.78113 4.19841 5.77957 4.19755 5.77813 4.19661C5.77813 4.19661 5.60577 4.41346 5.40572 4.66839C5.27993 4.80808 5.163 4.95412 5.055 5.10556C4.62704 4.27788 4.38845 3.27993 3.70284 2.58502C1.13869 0.10291 -1.76576 5.15475 1.35462 6.90451C1.79805 7.15844 2.41708 7.55421 2.94849 8.02362C2.63199 8.21458 2.41108 8.59889 2.39191 9.04811C2.37758 9.179 2.39191 9.31602 2.42984 9.4498C2.55192 9.95678 2.93998 10.3279 3.40049 10.3279C3.43776 10.3279 3.47444 10.3251 3.51064 10.3204C3.8586 10.2867 4.23617 10.0197 4.56363 9.374C5.13016 10.7056 6.34358 11.7612 7.86937 12.2476C7.57601 12.4285 7.32927 12.6498 7.14648 12.9009C6.50186 13.2297 6.10494 13.6792 6.10494 14.1751C6.10494 15.183 7.74555 16 9.76919 16C11.7936 16 13.4341 15.183 13.4341 14.1751C13.4341 13.6792 13.0366 13.2297 12.3922 12.9009C12.2508 12.7064 12.0701 12.5302 11.86 12.3762C17.2752 11.4702 18.1637 7.00894 23.9142 4.7007C24.3512 4.40308 23.0402 3.3664 21.766 3.70398ZM4.25684 7.08351C3.30022 6.16265 1.52326 5.65228 1.4885 4.44808C1.46645 3.41652 2.70055 3.22332 3.33019 3.74097C3.95797 4.20555 4.29382 4.98426 4.76122 5.57216C4.50472 6.0394 4.33116 6.54811 4.25684 7.08351ZM12.7384 5.69663C11.8993 6.12565 10.7715 6.36198 9.5629 6.36198C7.66213 6.36198 6.28365 5.8563 5.68967 5.27338C5.76165 5.18122 5.83381 5.08934 5.89973 5.00561C6.8717 5.51778 8.17813 5.80632 9.56296 5.80632C11.2649 5.80632 12.8149 5.37781 13.8003 4.64748C13.8006 4.6477 13.8009 4.64777 13.8013 4.64799C13.7477 4.9847 13.3425 5.38776 12.7384 5.69663Z" fill="#FAD229"/>
</svg>
